# xmcd
#
# Track frame offsets: 
#        151
#        8926
#        26787
#        42643
#        56290
#        70478
#        84831
#        104723
#        117332
#        132196
#        150729
#        164616
#        181653
#        189153
#
# Disc length: 2804 seconds
#
# Revision: 0
# Processed by: cddbd v1.4PL0 Copyright (c) Steve Scherf et al.
# Submitted via: ExactAudioCopy v0.90b2
#
DISCID=b90af20e
DTITLE=Dave Morrison - One More Sunrise
DYEAR=2002
DGENRE=Country
TTITLE0=Laughin' Like a Madman--Cryin' Like a Dove
TTITLE1=Draw Your Brakes
TTITLE2=One More Sunrise
TTITLE3=Staight and Narrow
TTITLE4=Feelin' no Pain
TTITLE5=For Cathy
TTITLE6=Black is the Colour
TTITLE7=Six Feet of Snow
TTITLE8=Philadelphia
TTITLE9=Daybreak
TTITLE10=Half-Hearted
TTITLE11=God Only Knows
TTITLE12=Undecided
TTITLE13=White Line Fever
EXTD=
EXTT0=
EXTT1=
EXTT2=
EXTT3=
EXTT4=
EXTT5=
EXTT6=
EXTT7=
EXTT8=
EXTT9=
EXTT10=
EXTT11=
EXTT12=
EXTT13=
PLAYORDER=
